<svg width="96" height="56" viewBox="0 0 96 56" fill="none" xmlns="http://www.w3.org/2000/svg">
<path fill-rule="evenodd" clip-rule="evenodd" d="M6.45418 42.5709C6.45418 40.3841 6.79617 38.3796 8.57503 36.8528C11.3996 34.432 14.9622 34.5133 17.7597 36.8552C21.8587 40.2832 19.9593 48.6535 13.0087 48.6535C10.4597 48.6535 8.31177 47.0011 7.19722 45.0261C6.91427 44.5188 6.45418 43.2752 6.45418 42.5709V42.5709ZM20.3652 30.7283C16.2957 28.5735 12.3001 27.783 7.89596 29.7703C6.42219 30.4352 5.192 31.2651 4.09713 32.3684C-0.0953754 36.5991 -1.20255 42.598 1.3907 47.8015C1.70071 48.422 2.16572 49.1214 2.57169 49.6607C3.93228 51.483 5.69392 52.9015 7.78771 53.8816C11.9015 55.8074 16.7607 55.3395 20.5276 52.8129C21.31 54.2904 21.9103 54.8937 23.886 54.8937C25.7239 54.8937 26.9246 53.101 26.9246 51.2122V19.5259C26.9246 14.8347 22.0973 14.5958 20.7958 17.2333C20.2201 18.3981 20.3677 19.7944 20.3677 21.4468C20.3652 24.5398 20.3652 27.6328 20.3652 30.7283V30.7283Z" fill="#C52707"/>
<path fill-rule="evenodd" clip-rule="evenodd" d="M14.4504 17.445C11.4832 17.445 6.87241 17.152 4.71465 17.9425C3.39096 18.4276 2.61102 19.0654 1.69575 20.0406C0.99208 20.7917 0.0595927 22.8283 0.0595927 23.5252C0.0595927 25.2662 0.0423705 26.239 0.962556 27.9012C1.32177 28.5513 2.21735 29.5512 2.77832 29.9255C3.77724 29.2556 5.33713 27.9825 6.61653 27.6845V27.3644C3.59271 27.2979 2.80047 22.0452 6.8109 21.4788C8.27483 21.2719 11.2298 21.4443 12.8512 21.4443C12.6912 22.1289 12.3172 23.2395 12.0491 23.8429C11.712 24.6013 11.4438 25.5125 11.092 26.2464L15.41 26.0863L21.214 10.7714C21.6347 9.69032 21.9275 8.66834 22.3901 7.62666C22.7862 6.73766 22.9117 6.35104 23.5588 5.59502C23.5809 5.57039 23.6104 5.53346 23.6326 5.50883C24.4839 4.56319 25.8592 4.00172 27.4043 4.00172H68.018C72.9388 4.00172 73.3619 8.954 75.5099 14.2683L79.7811 25.5174C80.8022 28.0933 80.2067 26.3744 83.3487 26.7537C84.9012 26.9408 84.6576 27.2363 83.2748 23.6188C82.9304 22.7224 82.8172 22.22 82.4088 21.4443C85.7894 21.4443 91.3621 20.4519 91.3621 24.4856C91.3621 26.0321 90.2181 27.3668 88.6434 27.3668V27.687C89.9892 27.9997 91.5491 29.1965 92.6415 29.9279C93.6921 29.2236 95.2003 26.9507 95.2003 25.7661C95.2003 24.1014 95.3947 22.8751 94.6172 21.3901C94.477 21.1242 94.2998 20.8508 94.1276 20.5996C91.3375 16.5191 86.3208 17.445 80.9695 17.445L78.9347 12.1184C78.1868 10.2592 77.6012 8.54521 76.8803 6.65394C75.9084 4.10269 74.351 1.85187 71.743 0.751093C71.0541 0.460506 69.536 0 68.6552 0H26.7622C24.1025 0 21.3075 1.77307 19.7894 4.06328C18.7266 5.66643 16.4187 12.1603 15.4788 14.6328C15.1369 15.5267 14.8145 16.6841 14.4504 17.445V17.445Z" fill="#C52707"/>
<path fill-rule="evenodd" clip-rule="evenodd" d="M47.3874 38.4091H36.8348C38.0453 36.5991 39.8931 35.5894 42.1517 35.4072C43.0325 35.3358 44.8114 35.8456 45.4019 36.2346C46.1154 36.705 47.1635 37.5669 47.3874 38.4091V38.4091ZM29.3208 41.4504C29.3208 47.2745 31.8747 51.6702 37.0194 54.0688C44.1865 57.413 53.1447 52.5617 53.1447 49.6115C53.1447 48.3088 52.8397 47.1439 51.5455 46.4126C48.1748 44.5114 48.2363 48.8111 41.7925 48.8111C40.0161 48.8111 38.6358 47.8384 37.6369 46.8903C36.8496 46.1441 36.1262 44.9153 35.8777 43.849C37.755 43.849 51.3462 44.0879 52.4952 43.6766C54.0748 43.1127 54.744 41.4972 54.744 39.8473C54.744 38.0052 53.2038 35.2077 52.1212 33.8311C51.3905 32.9028 50.0668 31.7109 49.1171 31.078C42.5159 26.665 33.9808 29.6694 30.6519 36.3799C30.0515 37.5866 29.3208 39.7365 29.3208 41.4504V41.4504Z" fill="#C52707"/>
<path fill-rule="evenodd" clip-rule="evenodd" d="M88.6409 38.4091H78.0883C78.664 37.5497 79.252 36.9069 80.2165 36.3775C84.1876 34.203 88.0897 36.3455 88.6409 38.4091ZM70.5718 41.4504C70.5718 46.3929 72.3383 50.2493 76.3045 52.9976C77.0401 53.5073 77.5617 53.7265 78.4032 54.0983C82.2291 55.7852 86.6037 55.4429 90.2967 53.6698C91.6253 53.032 94.3982 51.3181 94.3982 49.6139C94.3982 48.3112 94.0955 47.1464 92.7989 46.415C90.3262 45.0187 89.1403 47.1883 87.3664 48.0157C84.6821 49.2692 81.2105 49.2002 78.9838 46.9593C78.8805 46.8558 78.7895 46.7475 78.6788 46.6244C78.3392 46.2525 78.3146 46.2771 78.0366 45.8289C77.1902 44.4671 77.5322 44.6863 77.1336 43.8539C79.0109 43.8539 92.6021 44.0928 93.7511 43.6816C95.3282 43.1176 95.9999 41.5022 95.9999 39.8522C95.9999 38.4042 95.0797 36.5622 94.5286 35.5648C93.4805 33.6662 92.1469 32.2674 90.373 31.0829C83.8899 26.7512 75.3572 29.5093 71.9053 36.3824C71.3443 37.4881 70.5718 39.8719 70.5718 41.4504V41.4504Z" fill="#C52707"/>
<path fill-rule="evenodd" clip-rule="evenodd" d="M58.2603 18.2454V48.3334C58.2603 49.2396 58.6342 50.3699 58.9172 51.0373C59.9038 53.3669 62.8021 55.0563 65.4569 55.0563C67.0266 55.0563 68.4955 53.7585 68.4955 52.175C68.4955 49.1189 67.1201 49.0303 64.8172 48.4935C64.7335 48.1339 64.672 48.0354 64.6179 47.5872L64.6573 21.6068C64.6573 19.3486 64.987 17.3933 63.2499 16.1349C61.1168 14.586 58.2603 16.3713 58.2603 18.2454V18.2454Z" fill="#C52707"/>
<path fill-rule="evenodd" clip-rule="evenodd" d="M39.5537 6.88295C39.5537 8.47379 40.4542 9.12391 42.1125 9.12391H51.2258C54.8376 9.12391 54.5547 5.12219 51.7056 5.12219H41.6327C40.5403 5.12219 39.5537 5.85605 39.5537 6.88295Z" fill="#C52707"/>
<path fill-rule="evenodd" clip-rule="evenodd" d="M39.8735 22.0846C39.8735 23.0672 41.2292 23.6163 42.0092 22.3013C42.2503 21.895 42.3881 21.6585 42.5898 21.2842C42.9564 20.6021 43.3378 19.9569 43.7585 19.2551L46.1057 15.044C46.1057 14.2289 46.1598 13.6034 44.9862 13.6034C44.1054 13.6034 41.057 19.7402 40.3779 20.8336C40.1368 21.2325 39.8735 21.4911 39.8735 22.0846V22.0846Z" fill="#C52707"/>
<path fill-rule="evenodd" clip-rule="evenodd" d="M45.4688 22.0846C45.4688 23.0992 46.9032 23.5104 47.5871 22.4466L51.8633 14.7239C51.8633 14.0762 51.5139 13.6034 50.9037 13.6034C49.7941 13.6034 49.6957 14.5219 49.2381 15.2977C48.6254 16.3393 45.4688 21.6388 45.4688 22.0846Z" fill="#C52707"/>
<path fill-rule="evenodd" clip-rule="evenodd" d="M57.9402 5.12219C55.3641 5.12219 55.3248 8.91213 57.8024 9.03034C60.5014 9.15839 60.2923 5.12219 57.9402 5.12219Z" fill="#C52707"/>
</svg>
